<svg width="24" height="24" viewBox="0 0 24 24" fill="none" xmlns="http://www.w3.org/2000/svg">
<path d="M12.681 12.4166C12.7843 12.4469 12.8402 12.5549 12.8061 12.6574C12.675 13.0493 12.2779 13.3391 11.8572 13.4977C11.4301 13.6586 10.9191 13.7084 10.496 13.5671C10.3942 13.5329 10.3426 13.423 10.3806 13.3218C10.4189 13.2207 10.5327 13.1659 10.6348 13.2C10.9506 13.3054 11.3632 13.2737 11.7263 13.137C12.0956 12.9978 12.3561 12.7734 12.4315 12.5479C12.4658 12.4455 12.5776 12.3864 12.681 12.4166Z" fill="black"/>
<path d="M8.38958 10.5117C8.46387 10.4339 8.58477 10.434 8.65925 10.512C8.88849 10.7525 8.98076 11.0274 8.9569 11.2954C8.93348 11.5567 8.80208 11.7875 8.62972 11.9561C8.29885 12.2797 7.7133 12.4519 7.30623 12.0397C7.23058 11.963 7.2283 11.8366 7.30118 11.7574C7.37415 11.6782 7.4947 11.6762 7.57046 11.7529C7.77024 11.9551 8.11524 11.9118 8.36937 11.6633C8.48919 11.546 8.56426 11.4012 8.57726 11.2575C8.58948 11.1204 8.54763 10.9594 8.38997 10.794C8.31571 10.716 8.31559 10.5895 8.38958 10.5117Z" fill="black"/>
<path d="M11.4554 7.5871C11.5297 7.50943 11.6503 7.50984 11.7247 7.58785C11.954 7.82838 12.0462 8.10315 12.0224 8.37121C11.9989 8.6325 11.8675 8.86332 11.6952 9.03194C11.3643 9.3554 10.7791 9.52757 10.3721 9.11557C10.2964 9.03885 10.2938 8.91245 10.3666 8.8332C10.4396 8.75405 10.5605 8.75202 10.6363 8.8287C10.8361 9.03076 11.1811 8.98756 11.4352 8.73907C11.5551 8.62175 11.6301 8.47665 11.6431 8.33296C11.6553 8.19593 11.6134 8.03516 11.4558 7.86984C11.3814 7.79173 11.3813 7.665 11.4554 7.5871Z" fill="black"/>
<path fill-rule="evenodd" clip-rule="evenodd" d="M4.68336 9.74818C5.12855 7.10137 8.71316 5.55162 12.6899 6.287L12.8757 6.323C16.7554 7.10821 19.5225 9.80588 19.0847 12.4114C19.0765 12.4599 19.0673 12.5084 19.0571 12.5561L19.0583 12.5565C18.9712 12.9889 18.8236 13.3974 18.6235 13.7782C18.6247 13.7759 18.6261 13.7738 18.6273 13.7715C19.1778 13.9075 19.49 14.0624 19.4904 14.2271H18.8255C18.8122 14.2228 18.7985 14.218 18.7843 14.2136C18.6805 14.1814 18.5605 14.1501 18.4257 14.1191C18.4314 14.1101 18.4367 14.1007 18.4424 14.0917C18.3822 14.1875 18.3185 14.2812 18.2516 14.3729C18.4594 14.33 18.6378 14.2864 18.7843 14.2409C18.7982 14.2367 18.8114 14.2317 18.8243 14.2274H19.49V14.2646L19.488 14.4536C19.481 14.7822 19.4573 15.1061 19.4204 15.4248C20.3002 15.403 21.0588 15.7718 21.3676 16.4661C21.8374 17.5232 21.0874 18.9335 19.692 19.6161L19.5603 19.6772C18.9197 19.961 18.2622 20.04 17.6986 19.9371L17.6761 19.9686C17.623 20.0408 17.5687 20.1118 17.5137 20.1819C19.1095 20.4787 20.1094 20.9029 20.1097 21.3752L20.107 21.4172C19.9965 22.295 16.4338 23 12.055 23L11.6404 22.9977C7.38478 22.9542 4.0006 22.2443 4.00024 21.3752C4.00061 20.9028 5.00066 20.4783 6.5967 20.1816C5.37043 18.6175 4.62012 16.5261 4.62002 14.2274H5.28565C5.29868 14.2317 5.31216 14.2366 5.32606 14.2409C5.59448 14.3241 5.96955 14.4038 6.43777 14.4764C6.2854 14.3265 6.14099 14.1719 6.00568 14.0126C6.01522 14.0238 6.02441 14.0355 6.03404 14.0467C5.74979 14.1 5.51226 14.1559 5.32606 14.2136C5.3118 14.218 5.29783 14.2227 5.28448 14.2271L4.62002 14.2274C4.62044 14.0367 5.03884 13.8591 5.76165 13.7088C5.78485 13.7396 5.80892 13.7698 5.83276 13.8003C4.92667 12.6412 4.47498 11.271 4.66121 9.89405L4.66276 9.89442C4.66871 9.8458 4.6752 9.79674 4.68336 9.74818ZM17.2324 20.5213C16.9619 20.831 16.672 21.1168 16.3643 21.3755H16.3662C16.274 21.4531 16.1795 21.5273 16.0841 21.5998C16.0397 21.6336 15.9955 21.6675 15.9505 21.7003H15.9489C15.9306 21.7136 15.9129 21.7277 15.8945 21.7408C15.0577 21.9121 13.6503 22.0254 12.055 22.0254L11.5798 22.022C10.1814 22.0022 8.96647 21.8943 8.21394 21.74C8.0532 21.6254 7.89626 21.5038 7.74377 21.3755H7.74532C7.43758 21.1168 7.14729 20.8311 6.87686 20.5213C6.72634 20.5473 6.58084 20.5741 6.44088 20.6023C5.72592 20.7465 5.17354 20.9137 4.80964 21.0872C4.62704 21.1742 4.51217 21.2537 4.44827 21.3167C4.41899 21.3455 4.40582 21.3649 4.40048 21.3752C4.40576 21.3854 4.41878 21.405 4.44827 21.434C4.51218 21.497 4.62706 21.5765 4.80964 21.6635C5.17354 21.837 5.72596 22.0038 6.44088 22.148C7.86453 22.4352 9.84963 22.616 12.055 22.616C14.2604 22.616 16.2455 22.4352 17.6691 22.148C18.3841 22.0038 18.9364 21.837 19.3003 21.6635C19.4829 21.5765 19.5978 21.497 19.6617 21.434C19.6911 21.4051 19.7038 21.3854 19.7091 21.3752C19.7037 21.3649 19.6909 21.3454 19.6617 21.3167C19.5978 21.2537 19.483 21.1742 19.3003 21.0872C18.9364 20.9137 18.3841 20.7465 17.6691 20.6023C17.5289 20.574 17.3831 20.5473 17.2324 20.5213ZM19.0874 14.5436C18.5754 14.7387 17.6046 14.9051 16.3437 15.0221C16.331 15.0232 16.3184 15.025 16.3056 15.0262C15.1009 15.1364 13.6355 15.202 12.055 15.2021L11.2949 15.1968C10.7812 15.19 10.283 15.1754 9.80554 15.1556C9.80618 15.1558 9.80685 15.1561 9.80748 15.1563C9.75136 15.154 9.69554 15.1506 9.64001 15.1481C9.49026 15.1413 9.34268 15.1342 9.19742 15.1263C9.16035 15.1243 9.12344 15.122 9.08668 15.1199C8.91712 15.1102 8.75084 15.1001 8.58814 15.0888C8.58322 15.0885 8.57828 15.0884 8.57337 15.0881L8.5726 15.0877C8.13134 15.057 7.71662 15.0199 7.33382 14.9786C7.30895 14.9759 7.2842 14.9734 7.2596 14.9707C7.159 14.9595 7.0606 14.9487 6.96468 14.9369C6.95898 14.9362 6.95326 14.9358 6.94758 14.9351L6.9468 14.9347C6.08464 14.8278 5.41754 14.6946 5.02297 14.5443C5.11354 17.473 6.453 19.9713 8.3888 21.3827C8.51887 21.4075 8.66494 21.4325 8.82633 21.455C9.64312 21.5692 10.7849 21.6414 12.055 21.6414C13.3251 21.6414 14.4669 21.5692 15.2837 21.455C15.4448 21.4325 15.5905 21.4074 15.7204 21.3827C17.6567 19.9712 18.997 17.4728 19.0874 14.5436ZM19.3676 15.8189C19.3371 16.015 19.3017 16.2089 19.2603 16.4001C19.8544 16.3241 20.3534 16.4913 20.5255 16.8783L20.5465 16.9326C20.7432 17.4992 20.1999 18.2923 19.2988 18.733L19.2118 18.7742C18.8936 18.9179 18.5745 18.9964 18.2842 19.0157C18.1783 19.2071 18.0668 19.3935 17.9489 19.5741C18.4289 19.6246 18.9871 19.5312 19.535 19.2632C20.162 18.9566 20.6305 18.4924 20.8892 18.0062C21.1477 17.5204 21.1883 17.0347 21.0128 16.6398C20.8372 16.2449 20.4563 15.9652 19.9353 15.8605C19.758 15.825 19.5671 15.8104 19.3676 15.8189ZM19.6555 16.7823C19.5092 16.7682 19.3412 16.7771 19.1609 16.8123C18.9972 17.439 18.7759 18.0357 18.5038 18.5939C18.7049 18.5564 18.9224 18.4876 19.1422 18.3801C19.5523 18.1795 19.8613 17.9032 20.0363 17.6387C20.2152 17.3681 20.2223 17.1682 20.1708 17.0519C20.119 16.9356 19.9685 16.8125 19.6555 16.7823ZM7.98896 9.8618C6.86372 9.56658 5.86775 9.54738 5.04901 10.0065C4.93613 11.1127 5.46077 12.264 6.49644 13.2558C7.07947 13.8141 7.81714 14.3118 8.66974 14.7093C9.68061 14.7779 10.8317 14.8181 12.055 14.8181C14.0485 14.8181 15.8506 14.7137 17.1659 14.5473C17.8042 14.1103 18.2699 13.5675 18.5209 12.9484C17.6539 13.2961 16.6649 13.2304 15.6373 12.9607C14.4069 12.6379 13.0806 12.0121 11.7776 11.3981C10.465 10.7797 9.17509 10.1731 7.98896 9.8618ZM5.81139 13.0961C6.14868 13.6282 6.58612 14.1254 7.10728 14.5676C7.29418 14.5898 7.49022 14.6098 7.69442 14.6294C6.94713 14.1883 6.30842 13.6673 5.81139 13.0961ZM12.6262 6.66612C10.7066 6.31115 8.89847 6.51148 7.53083 7.10261C6.27881 7.64385 5.42641 8.49567 5.13993 9.52581C6.02078 9.15108 7.03139 9.21374 8.08221 9.48943C9.31253 9.81227 10.6393 10.4377 11.9423 11.0516C13.2548 11.6701 14.5444 12.2771 15.7305 12.5884C16.858 12.8842 17.8554 12.9025 18.6751 12.4406C18.682 12.4071 18.6885 12.3732 18.6942 12.3394C18.8895 11.1772 18.366 9.95199 17.2724 8.90445C16.18 7.85832 14.5459 7.02116 12.6262 6.66612Z" fill="black"/>
<path d="M15.4566 1.85873C15.5499 1.85873 15.7049 1.87091 15.9213 1.89548C16.1378 1.91596 16.4287 1.92623 16.7937 1.92623H17.9267C18.0031 1.92623 18.0477 1.96733 18.0604 2.04923C18.0731 2.13111 18.0668 2.22325 18.0414 2.32559C18.0159 2.4239 17.982 2.50605 17.9396 2.57159C17.7019 2.93609 17.4449 3.30246 17.169 3.67106C16.8931 4.0356 16.6172 4.40038 16.3414 4.76491C16.1234 5.05296 15.9177 5.34123 15.7235 5.62927L17.462 5.33003C17.5851 5.30955 17.6722 5.29509 17.7231 5.2869C17.7782 5.27464 17.8166 5.26853 17.8378 5.26853C17.8886 5.26858 17.9139 5.29749 17.9139 5.35478C17.9139 5.43256 17.9033 5.51443 17.8821 5.6004C17.8651 5.68638 17.8375 5.76822 17.7993 5.84601C17.7611 5.91974 17.7146 5.98136 17.6594 6.03051C17.6043 6.07964 17.5427 6.10436 17.4748 6.10438H16.9207C16.5601 6.10438 16.2631 6.10629 16.0297 6.11038C15.7963 6.11857 15.5988 6.12466 15.4375 6.12876C15.2763 6.13695 15.1256 6.14113 14.9856 6.14113C14.9262 6.14113 14.8773 6.09587 14.8391 6.00576C14.8052 5.91159 14.7902 5.82556 14.7944 5.74777C14.7987 5.67818 14.8093 5.62906 14.8263 5.6004C14.8475 5.56764 14.8815 5.51852 14.9281 5.45302C15.2677 4.96971 15.5881 4.5395 15.8894 4.16268C16.1908 3.78586 16.4687 3.43552 16.7233 3.11195C16.9171 2.86975 17.0944 2.62996 17.2549 2.39234L15.692 2.58996C15.5902 2.60225 15.5031 2.61252 15.4309 2.62071C15.3631 2.6248 15.3185 2.62671 15.2973 2.62671C15.2422 2.62669 15.2038 2.61452 15.1826 2.58996C15.1614 2.56128 15.1512 2.5099 15.1512 2.43622C15.1512 2.38707 15.1614 2.3174 15.1826 2.22735C15.2081 2.13315 15.2444 2.04907 15.291 1.97535C15.3377 1.89761 15.3929 1.85873 15.4566 1.85873Z" fill="black"/>
<path d="M18.9487 1.62136C19.0304 1.62137 19.1659 1.63213 19.3551 1.65361C19.5445 1.67153 19.799 1.68061 20.1183 1.68061H21.1099C21.1768 1.68061 21.2158 1.71655 21.2269 1.78823C21.238 1.85989 21.2325 1.94054 21.2102 2.0301C21.1879 2.11602 21.1583 2.18766 21.1212 2.24497C20.9133 2.56391 20.6884 2.88468 20.447 3.2072C20.2056 3.52617 19.9641 3.84521 19.7227 4.16418C19.532 4.41627 19.3517 4.66845 19.1818 4.92054L20.7031 4.65879C20.8107 4.64089 20.887 4.62846 20.9316 4.62129C20.9798 4.61056 21.0132 4.60519 21.0318 4.60517C21.0764 4.60517 21.0987 4.63037 21.0987 4.68054C21.0987 4.74858 21.0896 4.82022 21.0711 4.89541C21.0562 4.97064 21.0318 5.04221 20.9984 5.11028C20.965 5.17474 20.9242 5.22854 20.876 5.27153C20.8277 5.31453 20.7738 5.3364 20.7144 5.3364H20.2298C19.9142 5.3364 19.6542 5.33807 19.4499 5.34165C19.2458 5.34882 19.0731 5.35419 18.932 5.35778C18.7909 5.36494 18.6589 5.36865 18.5364 5.36865C18.4844 5.36865 18.4416 5.329 18.4082 5.25015C18.3785 5.16774 18.3656 5.09249 18.3693 5.02441C18.373 4.96355 18.3821 4.92051 18.3969 4.89541C18.4155 4.86674 18.4454 4.82376 18.4863 4.76641C18.7834 4.34352 19.0635 3.96703 19.3272 3.63732C19.5908 3.30764 19.8341 3.00131 20.0569 2.71821C20.2264 2.50631 20.3812 2.29611 20.5216 2.08823L19.1546 2.2611C19.0655 2.27185 18.9893 2.28093 18.9262 2.2881C18.8668 2.29168 18.8277 2.29335 18.8092 2.29335C18.761 2.29333 18.7275 2.28259 18.7089 2.2611C18.6904 2.23599 18.6814 2.19125 18.6814 2.12685C18.6814 2.08384 18.6904 2.0227 18.7089 1.94385C18.7312 1.86151 18.7629 1.78819 18.8038 1.72373C18.8446 1.65564 18.893 1.62136 18.9487 1.62136Z" fill="black"/>
<path d="M22.0425 1C22.1125 1 22.2288 1.00933 22.3911 1.02775C22.5534 1.04311 22.7717 1.051 23.0454 1.051H23.8952C23.9525 1.051 23.9859 1.08154 23.9955 1.14287C24.005 1.20428 24.0002 1.27349 23.9811 1.35024C23.962 1.42395 23.9368 1.48559 23.905 1.53474C23.7267 1.80809 23.534 2.08292 23.3271 2.35934C23.1202 2.63275 22.9131 2.90642 22.7062 3.17983C22.5427 3.39582 22.3882 3.61181 22.2426 3.82781L23.5467 3.60357C23.639 3.58821 23.7043 3.57746 23.7425 3.57132C23.7839 3.56212 23.8125 3.55744 23.8284 3.55744C23.8666 3.55745 23.8855 3.57903 23.8855 3.62194C23.8855 3.68031 23.8777 3.74193 23.8618 3.80644C23.8491 3.8709 23.8283 3.93223 23.7996 3.99056C23.771 4.04584 23.7361 4.09207 23.6947 4.12893C23.6534 4.16575 23.6073 4.18439 23.5564 4.18443H23.1406C22.8701 4.18443 22.6473 4.18586 22.4723 4.18893C22.2972 4.19507 22.1491 4.19973 22.0281 4.2028C21.9072 4.20894 21.7943 4.2118 21.6893 4.2118C21.6447 4.2118 21.608 4.17814 21.5793 4.11055C21.5539 4.03993 21.5428 3.9754 21.5459 3.91706C21.5491 3.86484 21.5573 3.82794 21.57 3.80644C21.5859 3.78187 21.6112 3.74492 21.6462 3.69581C21.9008 3.33333 22.1414 3.01058 22.3674 2.72796C22.5933 2.4454 22.802 2.18274 22.993 1.9401C23.1383 1.75845 23.2709 1.57833 23.3913 1.40012L22.2193 1.54861C22.1429 1.55783 22.0776 1.56534 22.0235 1.57149C21.9726 1.57456 21.9391 1.57599 21.9232 1.57599C21.8819 1.57598 21.8533 1.56699 21.8373 1.54861C21.8214 1.52713 21.8133 1.4887 21.8133 1.43349C21.8133 1.39664 21.8214 1.34429 21.8373 1.27674C21.8564 1.20609 21.8835 1.14304 21.9186 1.08775C21.9535 1.02944 21.9948 1.00004 22.0425 1Z" fill="black"/>
</svg>
