<svg width="24" height="24" viewBox="0 0 24 24" fill="none" xmlns="http://www.w3.org/2000/svg">
<path d="M9.55 17.5749C9.41667 17.5749 9.29167 17.5539 9.175 17.5119C9.05833 17.4706 8.95 17.3999 8.85 17.2999L4.55 12.9999C4.36667 12.8166 4.279 12.5789 4.287 12.2869C4.29567 11.9956 4.39167 11.7582 4.575 11.5749C4.75833 11.3916 4.99167 11.2999 5.275 11.2999C5.55833 11.2999 5.79167 11.3916 5.975 11.5749L9.55 15.1499L18.025 6.6749C18.2083 6.49157 18.446 6.3999 18.738 6.3999C19.0293 6.3999 19.2667 6.49157 19.45 6.6749C19.6333 6.85824 19.725 7.09557 19.725 7.3869C19.725 7.6789 19.6333 7.91657 19.45 8.0999L10.25 17.2999C10.15 17.3999 10.0417 17.4706 9.925 17.5119C9.80833 17.5539 9.68333 17.5749 9.55 17.5749Z" fill="black"/>
</svg>
