<svg width="24" height="24" viewBox="0 0 24 24" fill="none" xmlns="http://www.w3.org/2000/svg">
<path d="M11 18C9.06667 18 7.41667 17.3167 6.05 15.95C4.68333 14.5833 4 12.9333 4 11V5C4 4.45 4.196 3.979 4.588 3.587C4.97933 3.19567 5.45 3 6 3H18.5C19.4667 3 20.2917 3.34167 20.975 4.025C21.6583 4.70833 22 5.53333 22 6.5C22 7.46667 21.6583 8.29167 20.975 8.975C20.2917 9.65833 19.4667 10 18.5 10H18V11C18 12.9333 17.3167 14.5833 15.95 15.95C14.5833 17.3167 12.9333 18 11 18ZM6 8H16V5H6V8ZM18 8H18.5C18.9167 8 19.2707 7.854 19.562 7.562C19.854 7.27067 20 6.91667 20 6.5C20 6.08333 19.854 5.72933 19.562 5.438C19.2707 5.146 18.9167 5 18.5 5H18V8ZM5 21C4.71667 21 4.479 20.904 4.287 20.712C4.09567 20.5207 4 20.2833 4 20C4 19.7167 4.09567 19.4793 4.287 19.288C4.479 19.096 4.71667 19 5 19H19C19.2833 19 19.5207 19.096 19.712 19.288C19.904 19.4793 20 19.7167 20 20C20 20.2833 19.904 20.5207 19.712 20.712C19.5207 20.904 19.2833 21 19 21H5Z" fill="black"/>
</svg>
