<svg width="24" height="24" viewBox="0 0 24 24" fill="none" xmlns="http://www.w3.org/2000/svg">
<path d="M6 22C5.45 22 4.97933 21.8043 4.588 21.413C4.196 21.021 4 20.55 4 20V4C4 3.45 4.196 2.979 4.588 2.587C4.97933 2.19567 5.45 2 6 2H19C19.2833 2 19.5207 2.09567 19.712 2.287C19.904 2.479 20 2.71667 20 3C20 3.28333 19.904 3.52067 19.712 3.712C19.5207 3.904 19.2833 4 19 4H18V6C18 6.28333 17.904 6.521 17.712 6.713C17.5207 6.90433 17.2833 7 17 7H9C8.71667 7 8.47933 6.90433 8.288 6.713C8.096 6.521 8 6.28333 8 6V4H6V20H10.05C9.41667 19.5333 8.91667 18.95 8.55 18.25C8.18333 17.55 8 16.8 8 16V13C8 12.45 8.196 11.979 8.588 11.587C8.97933 11.1957 9.45 11 10 11H16C16.55 11 17.021 11.1957 17.413 11.587C17.8043 11.979 18 12.45 18 13V16C18 16.8 17.8167 17.55 17.45 18.25C17.0833 18.95 16.5833 19.5333 15.95 20H19C19.2833 20 19.5207 20.096 19.712 20.288C19.904 20.4793 20 20.7167 20 21C20 21.2833 19.904 21.5207 19.712 21.712C19.5207 21.904 19.2833 22 19 22H6ZM13 10C13.2833 10 13.521 9.904 13.713 9.712C13.9043 9.52067 14 9.28333 14 9C14 8.71667 13.9043 8.479 13.713 8.287C13.521 8.09567 13.2833 8 13 8C12.7167 8 12.4793 8.09567 12.288 8.287C12.096 8.479 12 8.71667 12 9C12 9.28333 12.096 9.52067 12.288 9.712C12.4793 9.904 12.7167 10 13 10Z" fill="black"/>
</svg>
