<svg width="24" height="24" viewBox="0 0 24 24" fill="none" xmlns="http://www.w3.org/2000/svg">
<path d="M11.41 11.77C11.41 8.34002 14 5.52002 17.44 5.21002L20.34 4.95002C20.15 4.71002 19.95 4.48002 19.73 4.26002C16.24 0.770025 9.93003 1.40002 5.67003 5.67002C3.63003 7.71002 2.35003 10.27 2.06003 12.88C1.89003 14.41 2.08003 15.84 2.58003 17.12L7.55003 16.3C9.79003 15.93 11.42 14.03 11.42 11.78L11.41 11.77Z" fill="black"/>
<path d="M17.62 7.21002C15.22 7.43002 13.41 9.39002 13.41 11.78C13.41 15.01 11.08 17.75 7.87003 18.28L3.61003 18.98C3.81003 19.24 4.03003 19.5 4.27003 19.74C5.75003 21.22 7.76003 22.01 10.01 22.01C10.38 22.01 10.75 21.99 11.12 21.95C13.73 21.66 16.3 20.38 18.33 18.34C20.36 16.3 21.65 13.74 21.94 11.13C22.11 9.60002 21.92 8.16002 21.42 6.88002L17.63 7.22002L17.62 7.21002Z" fill="black"/>
</svg>
