<svg width="24" height="24" viewBox="0 0 24 24" fill="none" xmlns="http://www.w3.org/2000/svg">
<path d="M5.67001 5.67003C3.63001 7.71003 2.35001 10.27 2.06001 12.88C1.76001 15.58 2.54001 18.01 4.26001 19.73C5.74001 21.21 7.75001 22 10 22C10.37 22 10.74 21.98 11.11 21.94C13.72 21.65 16.29 20.37 18.32 18.33C20.35 16.29 21.64 13.73 21.93 11.12C22.23 8.42003 21.45 5.99003 19.73 4.27003C16.24 0.780034 9.93001 1.41003 5.67001 5.68003V5.67003ZM4.05001 13.1C4.29001 10.94 5.37001 8.80003 7.09001 7.08003C9.12001 5.05003 11.67 3.99003 13.98 3.99003C15.65 3.99003 17.19 4.54003 18.32 5.67003L18.33 5.68003L16.86 5.81003C13.73 6.09003 11.37 8.66003 11.37 11.78C11.37 13.74 9.95001 15.4 8.00001 15.72L4.42001 16.31C4.06001 15.34 3.92001 14.25 4.05001 13.08V13.1ZM19.95 10.89C19.71 13.05 18.63 15.19 16.91 16.91C15.19 18.63 13.06 19.7 10.89 19.95C8.80001 20.18 6.96001 19.6 5.67001 18.32C5.62001 18.27 5.59001 18.22 5.54001 18.17L8.31001 17.71C9.71844 17.4854 11.0006 16.766 11.9262 15.6809C12.8518 14.5958 13.3602 13.2163 13.36 11.79C13.36 9.71003 14.94 8.00003 17.03 7.81003L19.54 7.58003C19.93 8.56003 20.07 9.68003 19.94 10.89H19.95Z" fill="black"/>
</svg>
