<svg width="24" height="24" viewBox="0 0 24 24" fill="none" xmlns="http://www.w3.org/2000/svg">
<path d="M12 14.95C11.8667 14.95 11.7417 14.929 11.625 14.887C11.5083 14.8456 11.4 14.775 11.3 14.675L6.675 10.05C6.49167 9.86664 6.40433 9.63731 6.413 9.36198C6.421 9.08731 6.51667 8.85831 6.7 8.67498C6.88333 8.49164 7.11667 8.39998 7.4 8.39998C7.68333 8.39998 7.91667 8.49164 8.1 8.67498L12 12.575L15.925 8.64998C16.1083 8.46664 16.3377 8.37898 16.613 8.38698C16.8877 8.39564 17.1167 8.49164 17.3 8.67498C17.4833 8.85831 17.575 9.09164 17.575 9.37498C17.575 9.65831 17.4833 9.89164 17.3 10.075L12.7 14.675C12.6 14.775 12.4917 14.8456 12.375 14.887C12.2583 14.929 12.1333 14.95 12 14.95Z" fill="black"/>
</svg>
