<svg width="24" height="24" viewBox="0 0 24 24" fill="none" xmlns="http://www.w3.org/2000/svg">
<path d="M6 20C5.45 20 4.97933 19.8043 4.588 19.413C4.196 19.021 4 18.55 4 18C4 17.45 4.196 16.979 4.588 16.587C4.97933 16.1957 5.45 16 6 16C6.55 16 7.02067 16.1957 7.412 16.587C7.804 16.979 8 17.45 8 18C8 18.55 7.804 19.021 7.412 19.413C7.02067 19.8043 6.55 20 6 20ZM14 20C13.45 20 12.9793 19.8043 12.588 19.413C12.196 19.021 12 18.55 12 18C12 17.45 12.196 16.979 12.588 16.587C12.9793 16.1957 13.45 16 14 16C14.55 16 15.021 16.1957 15.413 16.587C15.8043 16.979 16 17.45 16 18C16 18.55 15.8043 19.021 15.413 19.413C15.021 19.8043 14.55 20 14 20ZM10 16C9.45 16 8.97933 15.804 8.588 15.412C8.196 15.0207 8 14.55 8 14C8 13.45 8.196 12.979 8.588 12.587C8.97933 12.1957 9.45 12 10 12C10.55 12 11.021 12.1957 11.413 12.587C11.8043 12.979 12 13.45 12 14C12 14.55 11.8043 15.0207 11.413 15.412C11.021 15.804 10.55 16 10 16ZM18 16C17.45 16 16.979 15.804 16.587 15.412C16.1957 15.0207 16 14.55 16 14C16 13.45 16.1957 12.979 16.587 12.587C16.979 12.1957 17.45 12 18 12C18.55 12 19.021 12.1957 19.413 12.587C19.8043 12.979 20 13.45 20 14C20 14.55 19.8043 15.0207 19.413 15.412C19.021 15.804 18.55 16 18 16ZM6 12C5.45 12 4.97933 11.804 4.588 11.412C4.196 11.0207 4 10.55 4 10C4 9.45 4.196 8.979 4.588 8.587C4.97933 8.19567 5.45 8 6 8C6.55 8 7.02067 8.19567 7.412 8.587C7.804 8.979 8 9.45 8 10C8 10.55 7.804 11.0207 7.412 11.412C7.02067 11.804 6.55 12 6 12ZM14 12C13.45 12 12.9793 11.804 12.588 11.412C12.196 11.0207 12 10.55 12 10C12 9.45 12.196 8.979 12.588 8.587C12.9793 8.19567 13.45 8 14 8C14.55 8 15.021 8.19567 15.413 8.587C15.8043 8.979 16 9.45 16 10C16 10.55 15.8043 11.0207 15.413 11.412C15.021 11.804 14.55 12 14 12ZM10 8C9.45 8 8.97933 7.804 8.588 7.412C8.196 7.02067 8 6.55 8 6C8 5.45 8.196 4.97933 8.588 4.588C8.97933 4.196 9.45 4 10 4C10.55 4 11.021 4.196 11.413 4.588C11.8043 4.97933 12 5.45 12 6C12 6.55 11.8043 7.02067 11.413 7.412C11.021 7.804 10.55 8 10 8ZM18 8C17.45 8 16.979 7.804 16.587 7.412C16.1957 7.02067 16 6.55 16 6C16 5.45 16.1957 4.97933 16.587 4.588C16.979 4.196 17.45 4 18 4C18.55 4 19.021 4.196 19.413 4.588C19.8043 4.97933 20 5.45 20 6C20 6.55 19.8043 7.02067 19.413 7.412C19.021 7.804 18.55 8 18 8Z" fill="black"/>
</svg>
