<svg width="24" height="24" viewBox="0 0 24 24" fill="none" xmlns="http://www.w3.org/2000/svg">
<path d="M6 20.5C5.45 20.5 4.97933 20.3043 4.588 19.913C4.196 19.521 4 19.05 4 18.5V9.5C4 9.18333 4.071 8.88333 4.213 8.6C4.35433 8.31667 4.55 8.08333 4.8 7.9L10.8 3.4C10.9833 3.26667 11.175 3.16667 11.375 3.1C11.575 3.03333 11.7833 3 12 3C12.2167 3 12.425 3.03333 12.625 3.1C12.825 3.16667 13.0167 3.26667 13.2 3.4L19.2 7.9C19.45 8.08333 19.646 8.31667 19.788 8.6C19.9293 8.88333 20 9.18333 20 9.5V18.5C20 19.05 19.8043 19.521 19.413 19.913C19.021 20.3043 18.55 20.5 18 20.5H14V13.5H10V20.5H6Z" fill="black"/>
</svg>
