<svg width="24" height="24" viewBox="0 0 24 24" fill="none" xmlns="http://www.w3.org/2000/svg">
<path d="M19.775 22.5999L18.175 20.9999H5C4.45 20.9999 3.979 20.8042 3.587 20.4129C3.19567 20.0209 3 19.5499 3 18.9999V5.7999L1.4 4.1999C1.21667 4.01657 1.125 3.78324 1.125 3.4999C1.125 3.21657 1.21667 2.98324 1.4 2.7999C1.58333 2.61657 1.81667 2.5249 2.1 2.5249C2.38333 2.5249 2.61667 2.61657 2.8 2.7999L21.2 21.1999C21.4 21.3999 21.496 21.6332 21.488 21.8999C21.4793 22.1666 21.375 22.3999 21.175 22.5999C20.975 22.7832 20.7417 22.8789 20.475 22.8869C20.2083 22.8956 19.975 22.7999 19.775 22.5999ZM7 16.9999H14.175L11.85 14.6749L11 15.7249L9.4 13.5499C9.3 13.4166 9.16667 13.3499 9 13.3499C8.83333 13.3499 8.7 13.4166 8.6 13.5499L6.6 16.1999C6.46667 16.3666 6.45 16.5416 6.55 16.7249C6.65 16.9082 6.8 16.9999 7 16.9999ZM21 18.1749L5.825 2.9999H19C19.55 2.9999 20.021 3.19557 20.413 3.5869C20.8043 3.9789 21 4.4499 21 4.9999V18.1749Z" fill="black"/>
</svg>
