<svg width="24" height="24" viewBox="0 0 24 24" fill="none" xmlns="http://www.w3.org/2000/svg">
<path d="M3 18.9999C2.71667 18.9999 2.47933 18.9039 2.288 18.7119C2.096 18.5206 2 18.2832 2 17.9999C2 17.7166 2.096 17.4792 2.288 17.2879C2.47933 17.0959 2.71667 16.9999 3 16.9999H21C21.2833 16.9999 21.5207 17.0959 21.712 17.2879C21.904 17.4792 22 17.7166 22 17.9999C22 18.2832 21.904 18.5206 21.712 18.7119C21.5207 18.9039 21.2833 18.9999 21 18.9999H3ZM2.5 12.5749C2.31667 12.4749 2.2 12.3249 2.15 12.1249C2.1 11.9249 2.125 11.7332 2.225 11.5499L2.7 10.6999H1.75C1.53333 10.6999 1.354 10.6289 1.212 10.4869C1.07067 10.3456 1 10.1666 1 9.9499C1 9.73324 1.07067 9.5539 1.212 9.4119C1.354 9.27057 1.53333 9.1999 1.75 9.1999H2.7L2.225 8.3999C2.125 8.21657 2.1 8.0249 2.15 7.8249C2.2 7.6249 2.31667 7.4749 2.5 7.3749C2.68333 7.2749 2.875 7.2499 3.075 7.2999C3.275 7.3499 3.425 7.46657 3.525 7.6499L4 8.4499L4.475 7.6499C4.575 7.46657 4.725 7.3499 4.925 7.2999C5.125 7.2499 5.31667 7.2749 5.5 7.3749C5.68333 7.4749 5.8 7.6249 5.85 7.8249C5.9 8.0249 5.875 8.21657 5.775 8.3999L5.3 9.1999H6.25C6.46667 9.1999 6.64567 9.27057 6.787 9.4119C6.929 9.5539 7 9.73324 7 9.9499C7 10.1666 6.929 10.3456 6.787 10.4869C6.64567 10.6289 6.46667 10.6999 6.25 10.6999H5.3L5.775 11.5499C5.875 11.7332 5.9 11.9249 5.85 12.1249C5.8 12.3249 5.68333 12.4749 5.5 12.5749C5.31667 12.6749 5.125 12.6999 4.925 12.6499C4.725 12.5999 4.575 12.4832 4.475 12.2999L4 11.4499L3.525 12.2999C3.425 12.4832 3.275 12.5999 3.075 12.6499C2.875 12.6999 2.68333 12.6749 2.5 12.5749ZM10.5 12.5749C10.3167 12.4749 10.2 12.3249 10.15 12.1249C10.1 11.9249 10.125 11.7332 10.225 11.5499L10.7 10.6999H9.75C9.53333 10.6999 9.35433 10.6289 9.213 10.4869C9.071 10.3456 9 10.1666 9 9.9499C9 9.73324 9.071 9.5539 9.213 9.4119C9.35433 9.27057 9.53333 9.1999 9.75 9.1999H10.7L10.225 8.3999C10.125 8.21657 10.1 8.0249 10.15 7.8249C10.2 7.6249 10.3167 7.4749 10.5 7.3749C10.6833 7.2749 10.875 7.2499 11.075 7.2999C11.275 7.3499 11.425 7.46657 11.525 7.6499L12 8.4499L12.475 7.6499C12.575 7.46657 12.725 7.3499 12.925 7.2999C13.125 7.2499 13.3167 7.2749 13.5 7.3749C13.6833 7.4749 13.8 7.6249 13.85 7.8249C13.9 8.0249 13.875 8.21657 13.775 8.3999L13.3 9.1999H14.25C14.4667 9.1999 14.646 9.27057 14.788 9.4119C14.9293 9.5539 15 9.73324 15 9.9499C15 10.1666 14.9293 10.3456 14.788 10.4869C14.646 10.6289 14.4667 10.6999 14.25 10.6999H13.3L13.775 11.5499C13.875 11.7332 13.9 11.9249 13.85 12.1249C13.8 12.3249 13.6833 12.4749 13.5 12.5749C13.3167 12.6749 13.125 12.6999 12.925 12.6499C12.725 12.5999 12.575 12.4832 12.475 12.2999L12 11.4499L11.525 12.2999C11.425 12.4832 11.275 12.5999 11.075 12.6499C10.875 12.6999 10.6833 12.6749 10.5 12.5749ZM18.5 12.5749C18.3167 12.4749 18.2 12.3249 18.15 12.1249C18.1 11.9249 18.125 11.7332 18.225 11.5499L18.7 10.6999H17.75C17.5333 10.6999 17.354 10.6289 17.212 10.4869C17.0707 10.3456 17 10.1666 17 9.9499C17 9.73324 17.0707 9.5539 17.212 9.4119C17.354 9.27057 17.5333 9.1999 17.75 9.1999H18.7L18.225 8.3999C18.125 8.21657 18.1 8.0249 18.15 7.8249C18.2 7.6249 18.3167 7.4749 18.5 7.3749C18.6833 7.2749 18.875 7.2499 19.075 7.2999C19.275 7.3499 19.425 7.46657 19.525 7.6499L20 8.4499L20.475 7.6499C20.575 7.46657 20.725 7.3499 20.925 7.2999C21.125 7.2499 21.3167 7.2749 21.5 7.3749C21.6833 7.4749 21.8 7.6249 21.85 7.8249C21.9 8.0249 21.875 8.21657 21.775 8.3999L21.3 9.1999H22.25C22.4667 9.1999 22.646 9.27057 22.788 9.4119C22.9293 9.5539 23 9.73324 23 9.9499C23 10.1666 22.9293 10.3456 22.788 10.4869C22.646 10.6289 22.4667 10.6999 22.25 10.6999H21.3L21.775 11.5499C21.875 11.7332 21.9 11.9249 21.85 12.1249C21.8 12.3249 21.6833 12.4749 21.5 12.5749C21.3167 12.6749 21.125 12.6999 20.925 12.6499C20.725 12.5999 20.575 12.4832 20.475 12.2999L20 11.4499L19.525 12.2999C19.425 12.4832 19.275 12.5999 19.075 12.6499C18.875 12.6999 18.6833 12.6749 18.5 12.5749Z" fill="black"/>
</svg>
