<svg width="24" height="24" viewBox="0 0 24 24" fill="none" xmlns="http://www.w3.org/2000/svg">
<path d="M9.6 16.6501L12 14.8001L14.4 16.6501L13.5 13.6001L15.75 12.0001H12.95L12 8.9001L11.05 12.0001H8.25L10.5 13.6001L9.6 16.6501ZM12 17.3001L8.3 20.1251C8.11667 20.2751 7.91667 20.3458 7.7 20.3371C7.48333 20.3291 7.29167 20.2668 7.125 20.1501C6.95833 20.0334 6.82933 19.8751 6.738 19.6751C6.646 19.4751 6.64167 19.2584 6.725 19.0251L8.15 14.4001L4.525 11.8251C4.325 11.6918 4.2 11.5168 4.15 11.3001C4.1 11.0834 4.10834 10.8834 4.175 10.7001C4.24167 10.5168 4.35834 10.3541 4.525 10.2121C4.69167 10.0708 4.89167 10.0001 5.125 10.0001H9.6L11.05 5.2001C11.1333 4.96676 11.2627 4.78743 11.438 4.6621C11.6127 4.53743 11.8 4.4751 12 4.4751C12.2 4.4751 12.3873 4.53743 12.562 4.6621C12.7373 4.78743 12.8667 4.96676 12.95 5.2001L14.4 10.0001H18.875C19.1083 10.0001 19.3083 10.0708 19.475 10.2121C19.6417 10.3541 19.7583 10.5168 19.825 10.7001C19.8917 10.8834 19.9 11.0834 19.85 11.3001C19.8 11.5168 19.675 11.6918 19.475 11.8251L15.85 14.4001L17.275 19.0251C17.3583 19.2584 17.3543 19.4751 17.263 19.6751C17.171 19.8751 17.0417 20.0334 16.875 20.1501C16.7083 20.2668 16.5167 20.3291 16.3 20.3371C16.0833 20.3458 15.8833 20.2751 15.7 20.1251L12 17.3001Z" fill="black"/>
</svg>
